<svg xmlns="http://www.w3.org/2000/svg" viewBox="0 0 1200 900" width="1200" height="900">
  <defs>
    <linearGradient id="sg1" x1="0%" y1="0%" x2="100%" y2="100%">
      <stop offset="0%" stop-color="#1c1613"/>
      <stop offset="50%" stop-color="#8c3e1e"/>
      <stop offset="100%" stop-color="#d97736"/>
    </linearGradient>
  </defs>
  <rect width="1200" height="900" fill="#0c0a09"/>
  <!-- Bold Geometric Backdrop like Match Point -->
  <circle cx="850" cy="450" r="340" fill="#a0441d"/>
  <circle cx="400" cy="450" r="280" fill="#36312a" opacity="0.8"/>
  <rect x="520" y="160" width="160" height="580" rx="80" fill="#d97736" opacity="0.85"/>
  <circle cx="340" cy="280" r="140" fill="#e5dfd4" opacity="0.9"/>
  <!-- Dynamic Car Silhouette Vector -->
  <g fill="#090807" transform="translate(180, 320)">
    <path d="M 50 240 C 90 220, 180 200, 300 150 C 440 100, 600 95, 750 150 C 820 180, 870 210, 920 240 L 920 290 C 890 290, 860 260, 800 260 C 740 260, 710 290, 680 290 L 300 290 C 270 290, 240 260, 180 260 C 120 260, 90 290, 60 290 Z"/>
    <circle cx="180" cy="270" r="50" fill="#1a1816"/>
    <circle cx="180" cy="270" r="30" fill="#78716c"/>
    <circle cx="750" cy="270" r="50" fill="#1a1816"/>
    <circle cx="750" cy="270" r="30" fill="#78716c"/>
  </g>
  <!-- Editorial Monospace Labels -->
  <g font-family="monospace" font-size="16" fill="#f5f5f4" letter-spacing="3">
    <text x="80" y="100">SYSTON AUTOS LTD // 06 EPISODES</text>
    <text x="80" y="820" opacity="0.7">SHORT-FORM VIRAL REELS · PACING &amp; SOUND DESIGN</text>
    <text x="1120" y="100" text-anchor="end">2024–2025</text>
  </g>
</svg>